<svg width="192" height="192" viewBox="0 0 192 192" fill="none"
  xmlns="http://www.w3.org/2000/svg">
  <rect width="192" height="192" rx="60" fill="url(#paint0_linear_690_25)" />
  <path
    d="M90.4444 149.526C92.1335 150.492 94.0496 151 96 151C97.9504 151 99.8665 150.492 101.556 149.526L140.444 127.521C142.132 126.557 143.533 125.17 144.509 123.499C145.484 121.829 145.998 119.934 146 118.005V73.9955C145.998 72.0661 145.484 70.1712 144.509 68.5008C143.533 66.8303 142.132 65.4432 140.444 64.4785L101.556 42.474C99.8665 41.5084 97.9504 41 96 41C94.0496 41 92.1335 41.5084 90.4444 42.474L51.5556 64.4785C49.8681 65.4432 48.4666 66.8303 47.4915 68.5008C46.5163 70.1712 46.002 72.0661 46 73.9955V118.005C46.002 119.934 46.5163 121.829 47.4915 123.499C48.4666 125.17 49.8681 126.557 51.5556 127.521L90.4444 149.526Z"
    stroke="black" stroke-width="5" stroke-linecap="round"
    stroke-linejoin="round" />
  <path d="M98 151V93" stroke="black" stroke-width="5" stroke-linecap="round"
    stroke-linejoin="round" />
  <path d="M46 68L96 93L146 68" stroke="black" stroke-width="5"
    stroke-linecap="round" stroke-linejoin="round" />
  <path d="M73 51L125 83" stroke="black" stroke-width="5" stroke-linecap="round"
    stroke-linejoin="round" />
  <defs>
    <linearGradient id="paint0_linear_690_25" x1="165.6" y1="1.54853e-06"
      x2="-40.8" y2="249.6" gradientUnits="userSpaceOnUse">
      <stop stop-color="#0D82FF" />
      <stop offset="1" stop-color="#2D1E2D" />
    </linearGradient>
  </defs>
</svg>